<svg width="260" height="164" viewBox="0 0 260 164" fill="none" xmlns="http://www.w3.org/2000/svg">
<g opacity="0.5">
<path d="M211.828 109.881C208.589 112.28 204.418 114.807 204.401 119.122C204.393 120.597 204.927 122.004 205.461 123.361C209.276 132.957 213.989 142.215 216.372 152.371C217.007 155.067 217.44 157.864 217.652 160.679H8.4759C3.26219 155.618 -1.28179 148.675 0.557845 141.494C2.99091 132.025 15.0545 128.583 17.0298 118.986C18.9711 109.551 9.8747 101.344 9.62885 91.6715C9.46778 85.4489 13.1725 79.6842 17.9538 76.4373C22.7352 73.1819 28.4491 72.0713 34.0443 71.6051C41.6402 70.9777 49.3124 71.4186 56.8066 72.9361C65.2757 74.6485 73.7448 77.7259 82.2902 76.5899C85.6642 76.1406 89.0468 74.9876 91.7427 72.6902C95.3117 69.6552 97.3633 64.9247 98.813 60.2027C102.814 47.2066 103.323 32.6845 109.944 21.0787C118.506 6.06491 135.97 -0.606944 151.9 1.27508C167.829 3.1571 182.359 12.279 195.059 23.1048C207.462 33.6764 219 46.7318 223.781 63.2462C228.562 79.7605 224.841 100.251 211.828 109.881Z" fill="#FCFAF1"/>
</g>
<path d="M221.687 76.9205C215.753 81.5578 207.97 85.1014 200.722 87.704C198.636 79.8199 196.805 71.8849 195.44 63.8651C201.103 62.6952 207.284 60.5758 213.116 56.6083C221.975 50.5722 233.759 28.2847 236.709 22.5284C236.862 22.2232 237.006 21.9265 237.159 21.6213L237.133 21.6128C237.133 21.6128 239.422 15.5598 239.727 14.6443C240.499 12.3553 241.431 6.68382 241.431 6.68382C241.431 6.68382 243.101 6.13278 243.39 9.96464C243.669 13.805 244.331 12.6605 244.331 12.6605C244.331 12.6605 251.291 2.19918 253.283 2.64002C254.029 2.80957 253.266 5.20024 252.088 6.57361C250.901 7.94698 249.68 10.0918 249.68 10.0918C249.68 10.0918 256.462 2.58915 258.285 3.47929C258.285 3.47929 259.192 4.05577 257.013 6.28537C254.004 9.37121 252.028 12.1858 252.028 12.1858C252.028 12.1858 258.904 6.2006 259.794 6.68382C261.277 7.48071 254.309 13.5761 253.274 15.687C253.274 15.687 258.42 10.8294 258.717 12.1942C258.997 13.4913 253.113 18.6202 250.443 25.4786C250.248 26.1483 249.994 26.9198 249.697 27.7845H249.705C249.705 27.7845 242.669 60.5419 221.687 76.9205Z" fill="#FEBF9F"/>
<path d="M244 13.186C244.865 13.8558 245.602 14.6442 246.263 15.5004C246.594 15.9328 246.899 16.3906 247.162 16.8823C247.416 17.3824 247.679 17.8996 247.73 18.5608L246.882 18.2387C247.315 17.8741 247.739 17.6368 248.23 17.4672C248.714 17.3061 249.231 17.2214 249.731 17.2722C250.231 17.3146 250.723 17.4418 251.155 17.6707C251.587 17.8826 251.96 18.1878 252.291 18.5184C251.85 18.3574 251.435 18.1878 251.002 18.1115C250.579 18.0013 250.146 18.0098 249.739 18.0352C249.332 18.0691 248.934 18.1793 248.569 18.3404C248.213 18.5015 247.832 18.7304 247.578 18.9677L246.865 19.6205L246.73 18.6371C246.679 18.2387 246.509 17.7554 246.28 17.3146C246.069 16.8568 245.831 16.399 245.568 15.9497C245.06 15.0511 244.509 14.144 244 13.186Z" fill="black"/>
<path d="M169.999 39.721C169.999 44.9262 166.218 49.1395 161.564 49.1395C156.901 49.1395 153.129 44.9177 153.129 39.721C153.129 34.5157 156.91 30.3024 161.564 30.3024C166.218 30.3024 169.999 34.5242 169.999 39.721Z" fill="black"/>
<path d="M155.248 43.4086C155.248 43.4086 167.363 33.4475 159.656 11.5923C154.638 -2.62461 125.102 37.8389 155.248 43.4086Z" fill="black"/>
<path d="M125.051 18.7982C126.407 10.2528 134.91 -4.03193 150.026 4.75932C154.782 7.52301 156.808 12.5672 157.774 17.8063C158.444 21.4601 157.155 57.3627 157.155 57.3627C155.875 71.7491 134.266 75.1656 133.528 57.6425L134.419 45.6467C123.466 42.137 123.533 28.3863 125.051 18.7982Z" fill="#FEBF9F"/>
<path d="M134.41 45.6552C134.41 45.6552 140.599 47.7237 152.264 40.4754C152.264 40.4754 145.711 50.0805 133.834 53.9971L134.41 45.6552Z" fill="#B06D6A"/>
<path d="M154.205 30.599C154.205 34.0748 151.382 36.8978 147.907 36.8978C144.431 36.8978 141.608 34.0748 141.608 30.599C141.608 27.1232 144.431 24.3002 147.907 24.3002C151.391 24.3002 154.205 27.1232 154.205 30.599Z" fill="#FCB091"/>
<path d="M131.511 26.2755C131.511 22.7997 128.688 19.9766 125.212 19.9766C125.102 19.9766 124.983 19.9766 124.873 19.9851C124.322 23.9102 124.059 28.3949 124.686 32.5489C124.856 32.5658 125.034 32.5743 125.212 32.5743C128.688 32.5743 131.511 29.7513 131.511 26.2755Z" fill="#FCB091"/>
<path d="M164.701 23.0794C165.303 25.5718 163.777 28.0812 161.284 28.6831C158.792 29.285 156.282 27.7591 155.681 25.2667C155.079 22.7742 156.605 20.2649 159.097 19.663C161.589 19.0526 164.099 20.587 164.701 23.0794Z" fill="#FEBF9F"/>
<path d="M158.037 25.47C158.08 24.9783 158.283 24.5375 158.571 24.1475C158.86 23.7576 159.267 23.4185 159.775 23.2235C160.284 23.037 160.911 23.0794 161.378 23.3337C161.861 23.5711 162.166 23.9865 162.344 24.4358C161.869 24.2917 161.488 24.1221 161.115 24.0882C160.75 24.0458 160.437 24.0543 160.123 24.1815C159.462 24.4103 158.826 24.936 158.037 25.47Z" fill="black"/>
<path d="M133.698 30.3023C134.283 30.5566 134.758 30.8533 135.25 31.0483C135.733 31.2518 136.174 31.3874 136.598 31.3789C137.021 31.3789 137.445 31.2602 137.912 31.0398C138.369 30.8194 138.836 30.5142 139.378 30.1836C139.276 30.8109 138.963 31.3789 138.496 31.8452C138.039 32.3115 137.344 32.6506 136.598 32.6506C135.851 32.6506 135.182 32.3199 134.715 31.8791C134.215 31.4468 133.893 30.8957 133.698 30.3023Z" fill="black"/>
<path d="M135.3 16.7127C135.436 17.2468 135.368 17.8318 135.233 18.3658C135.088 18.9084 134.86 19.4086 134.588 19.8918C134.037 20.8413 133.342 21.6721 132.503 22.3927L132.427 21.7314C133.325 22.3588 134.215 23.02 135.038 23.783C133.978 23.4185 132.978 22.9522 131.994 22.4605L131.553 22.2401L131.918 21.7993C132.24 21.4178 132.554 21.0024 132.876 20.6039C133.19 20.197 133.503 19.7985 133.8 19.3831C134.376 18.5523 134.944 17.747 135.3 16.7127Z" fill="black"/>
<path d="M140.404 18.1201C140.378 18.9255 140.395 19.7647 140.523 20.5277C140.641 21.2907 140.946 21.9774 141.37 22.0791C141.743 22.2487 142.388 21.8672 142.922 21.3161C143.456 20.7736 143.964 20.1123 144.422 19.4511L144.439 19.4341C144.566 19.2476 144.821 19.2052 144.999 19.3324C145.151 19.4426 145.211 19.6461 145.143 19.8156C144.812 20.6549 144.397 21.4179 143.795 22.13C143.49 22.4776 143.142 22.8167 142.684 23.0795C142.235 23.3338 141.565 23.5033 140.955 23.2745C140.353 23.0625 139.929 22.5539 139.726 22.0791C139.514 21.5959 139.437 21.1212 139.412 20.6549C139.361 19.7308 139.488 18.8661 139.734 18.0014C139.785 17.8234 139.972 17.7132 140.158 17.764C140.311 17.8064 140.412 17.9505 140.404 18.1031V18.1201Z" fill="black"/>
<path d="M127.51 16.6619C127.484 17.4249 127.476 18.2133 127.543 18.9424C127.577 19.3069 127.637 19.663 127.738 19.9512C127.84 20.2564 127.984 20.392 128.061 20.392C128.111 20.4175 128.323 20.3666 128.561 20.1631C128.807 19.9766 129.035 19.6969 129.264 19.4086C129.705 18.8321 130.138 18.1709 130.536 17.5266L130.545 17.5096C130.663 17.3231 130.909 17.2638 131.104 17.3825C131.265 17.4842 131.333 17.6792 131.274 17.8488C131.019 18.6456 130.697 19.3832 130.231 20.1038C130.002 20.4598 129.731 20.8074 129.375 21.1296C129.188 21.2822 128.976 21.4348 128.705 21.5534C128.434 21.6637 128.069 21.723 127.721 21.6213C127.382 21.528 127.094 21.2991 126.916 21.0533C126.738 20.8074 126.636 20.5616 126.577 20.3242C126.45 19.8579 126.424 19.4171 126.433 18.9932C126.45 18.137 126.602 17.3401 126.848 16.5517C126.908 16.3736 127.094 16.2719 127.272 16.3228C127.425 16.3652 127.518 16.5093 127.518 16.6619H127.51Z" fill="black"/>
<path d="M145.863 14.7544C145.77 15.3478 144.838 15.7038 143.77 15.5343C142.701 15.3647 141.921 14.7459 142.006 14.144C142.099 13.5421 143.032 13.1945 144.1 13.364C145.168 13.5336 145.957 14.1609 145.863 14.7544Z" fill="black"/>
<path d="M131.087 12.5248C131.299 13.0928 130.646 13.8473 129.629 14.1949C128.62 14.5509 127.628 14.3644 127.416 13.7964C127.204 13.2284 127.857 12.4739 128.874 12.1263C129.892 11.7703 130.884 11.9483 131.087 12.5248Z" fill="black"/>
<path d="M128.315 9.9137C128.315 9.9137 137.539 11.9059 150.026 4.76781C150.026 4.76781 145.516 29.0476 157.622 20.3242C157.622 20.3242 159.3 19.0356 161.106 19.5697L161.581 19.7223C161.581 19.7223 161.31 5.54774 151.162 2.0465C141.023 -1.46321 133.851 0.147525 128.315 9.9137Z" fill="black"/>
<path d="M66.5813 80.2013L71.2016 65.8741L81.8918 69.511L81.4001 81.9052L66.5813 80.2013Z" fill="#FEBF9F"/>
<path d="M233.784 26.3687C233.784 26.3687 220.865 52.5051 209.784 57.6764C198.73 62.8392 170.101 55.0314 162.276 55.3705V55.3535L157.24 55.2433C155.384 58.2274 148.661 60.1942 143.795 59.7449C136.852 59.1006 134.487 56.1504 133.808 53.7598L125.204 53.1155C120.999 52.7509 113.945 53.5648 107.426 60.3892C104.942 62.9918 93.2771 76.4627 79.696 94.0961L83.0955 82.0494L64.5805 79.7944C49.8719 107.821 56.3742 129.6 65.1231 129.6C80.2132 129.6 103.84 107.126 116.802 93.4687L120.066 128.685L170.084 130.389L165.701 88.2381C172.856 89.1621 209.216 93.3585 221.89 85.5168C235.98 76.8018 248.629 39.1275 248.629 39.1275L233.784 26.3687Z" fill="#FB9400"/>
<path d="M75.8219 107.007C75.4997 106.923 76.6442 101.361 78.6873 94.6725C80.7219 87.9752 82.8752 82.7276 83.1889 82.8378C83.511 82.9565 81.8748 88.3652 79.8487 95.0286C77.8141 101.692 76.1525 107.092 75.8219 107.007Z" fill="black"/>
<path d="M79.7299 54.3701C80.6031 53.4545 83.1634 50.6484 83.1718 49.4022C83.1888 47.1896 79.4247 51.1655 77.7886 52.9967C78.4837 53.4375 79.145 53.8868 79.7299 54.3701Z" fill="#F69B77"/>
<path d="M63.9362 36.1942C64.4702 35.0328 66.0047 34.7784 66.8863 35.711C70.9217 40.0091 79.9842 50.8265 84.5367 58.1511C90.9881 68.5362 95.2693 75.3521 95.2693 75.3521L114.166 91.6715C114.166 91.6715 106.18 96.0459 99.0842 89.7047C93.7179 84.9064 91.2255 76.4118 91.2255 76.4118C91.2255 76.4118 74.7875 46.8844 64.4279 38.3221C63.792 37.7965 63.6055 36.9318 63.9362 36.1942Z" fill="#5F462E"/>
<path d="M71.4219 73.3514C70.2605 68.6973 70.1757 61.1437 70.1248 58.3292C70.074 55.8368 71.6932 54.7601 72.7359 54.1582C77.0425 51.6743 85.7829 49.8855 86.1135 51.1063C86.3848 52.1066 78.8313 54.5567 78.8313 54.5567C78.8313 54.5567 88.2245 53.0137 86.3763 55.1501C85.3929 56.2946 80.1114 56.7354 80.1114 56.7354C80.1114 56.7354 85.8423 57.3458 85.4099 58.1851C84.63 59.6771 79.9164 59.4737 79.9164 59.4737C79.9164 59.4737 82.1884 61.3811 82.8412 66.2049C83.3244 69.7061 76.127 76.6916 76.127 76.6916L71.4219 73.3514Z" fill="#FEBF9F"/>
<path d="M75.3895 60.474C75.3301 60.262 76.3559 59.8297 77.6784 59.7279C78.3312 59.6686 78.9246 59.694 79.2807 59.6601C79.6367 59.6516 79.7893 59.5075 79.908 59.5499C79.9589 59.5753 79.9758 59.6601 79.9165 59.8042C79.8572 59.9483 79.6707 60.1094 79.4418 60.2111C78.984 60.4146 78.3821 60.474 77.7462 60.5333C76.4831 60.635 75.4488 60.6944 75.3895 60.474Z" fill="black"/>
<path d="M205.478 70.0451C205.122 70.0536 204.901 67.3832 203.536 64.4923C202.214 61.576 200.315 59.6855 200.561 59.4143C200.663 59.2956 201.29 59.6177 202.112 60.3892C202.935 61.1606 203.909 62.4068 204.639 63.9752C205.368 65.5436 205.681 67.1034 205.732 68.2225C205.8 69.3585 205.639 70.0451 205.478 70.0451Z" fill="black"/>
<path d="M211.421 64.4161C211.166 64.6534 209.454 63.1529 207.072 61.771C204.706 60.3638 202.562 59.6008 202.646 59.2617C202.706 58.948 205.139 59.2108 207.682 60.7198C210.251 62.2119 211.667 64.2126 211.421 64.4161Z" fill="black"/>
<path d="M171.729 131.448C171.813 131.372 172.449 131.974 173.67 132.974C174.891 133.966 176.73 135.348 179.257 136.586C180.494 137.188 181.978 137.756 183.368 137.433C184.013 137.272 184.674 136.832 185.03 136.238C185.411 135.645 185.403 134.983 185.013 134.424C184.623 133.873 183.818 133.474 182.928 133.246C182.054 133.008 181.003 132.898 179.986 132.779C177.926 132.567 175.764 132.542 173.56 132.728L173.543 130.999C175.137 131.092 176.815 131.118 178.528 131.067C179.791 131.033 181.037 130.948 182.266 130.829C183.487 130.702 184.716 130.575 185.818 130.346C186.92 130.109 187.929 129.719 188.633 129.075C189.303 128.498 189.667 127.523 189.608 126.692C189.54 125.845 189.065 125.302 188.226 125.073C187.811 124.954 187.336 124.895 186.844 124.87C186.352 124.844 185.878 124.81 185.394 124.836C183.496 124.853 181.724 125.192 180.172 125.675C177.053 126.658 174.798 128.176 173.39 129.354C171.966 130.541 171.279 131.33 171.169 131.245C171.093 131.186 171.593 130.244 172.924 128.854C174.246 127.472 176.502 125.701 179.774 124.505C181.402 123.912 183.284 123.471 185.344 123.386C185.861 123.352 186.386 123.369 186.912 123.378C187.438 123.386 188.006 123.437 188.616 123.59C189.209 123.742 189.879 124.039 190.371 124.598C190.863 125.141 191.151 125.853 191.202 126.548C191.32 127.93 190.812 129.32 189.752 130.312C188.735 131.262 187.429 131.737 186.183 132.025C184.92 132.305 183.691 132.432 182.427 132.567C181.164 132.695 179.876 132.779 178.57 132.822C176.807 132.873 175.077 132.839 173.433 132.737L173.416 131.007C175.739 130.821 178.011 130.88 180.164 131.135C181.249 131.279 182.275 131.397 183.36 131.711C184.403 132.025 185.522 132.508 186.268 133.559C186.632 134.085 186.819 134.712 186.81 135.348C186.802 135.984 186.564 136.569 186.259 137.035C185.623 137.976 184.682 138.553 183.665 138.773C182.673 138.968 181.732 138.824 180.91 138.578C180.088 138.324 179.375 137.976 178.723 137.62C176.137 136.179 174.357 134.602 173.238 133.449C172.136 132.262 171.652 131.508 171.729 131.448Z" fill="black"/>
<path d="M120.058 126.345L116.268 158.144H190.701L170.075 128.049L120.058 126.345Z" fill="#AE8448"/>
<path d="M120.058 126.345L170.22 127.896L172.22 131.584L152.4 131.889L162.234 158.161L116.268 158.144L120.058 126.345Z" fill="#FCFAF1"/>
<path d="M221.967 158.22H5.00867V163.604H221.967V158.22Z" fill="#EEC84E"/>
<path d="M160.648 152.735H71.7441V158.382H160.648V152.735Z" fill="black"/>
<path d="M121.194 42.9593C121.228 42.9848 121.092 43.2391 120.804 43.6969C120.651 43.9343 120.465 44.214 120.261 44.5362C120.058 44.8753 119.846 45.2822 119.6 45.723C118.642 47.5118 117.43 50.2585 116.913 53.8615C116.429 57.4306 116.548 61.8982 118.345 66.3405C119.218 68.5616 120.524 70.698 122.22 72.6817C123.907 74.657 125.967 76.6747 127.238 79.3451C128.501 81.9816 129.103 84.864 128.798 87.6616C128.637 89.0519 128.222 90.4168 127.467 91.5867C126.73 92.7736 125.611 93.6468 124.5 94.2487C123.381 94.8591 122.253 95.2829 121.211 95.7492C120.168 96.207 119.193 96.7156 118.286 97.2582C116.463 98.3518 114.903 99.6065 113.606 100.87C112.326 102.133 111.377 103.481 111.029 104.829C110.648 106.168 110.978 107.397 111.461 108.237C111.953 109.093 112.614 109.542 113.081 109.754C113.564 109.958 113.852 109.983 113.844 110.042C113.844 110.068 113.547 110.136 112.996 109.992C112.453 109.847 111.665 109.407 111.055 108.491C110.453 107.609 109.995 106.211 110.359 104.668C110.69 103.133 111.682 101.624 112.979 100.268C114.285 98.9113 115.87 97.5804 117.743 96.3935C118.676 95.8086 119.693 95.2575 120.761 94.7658C121.83 94.2741 122.923 93.8418 123.94 93.2653C124.958 92.6888 125.856 91.9597 126.475 90.9594C127.103 89.9675 127.459 88.7722 127.603 87.526C127.866 85.0251 127.306 82.3122 126.136 79.8792C124.975 77.4207 123.033 75.5048 121.304 73.4532C119.558 71.3931 118.176 69.0872 117.294 66.7474C115.471 62.0593 115.446 57.4051 116.056 53.7259C116.701 50.0127 118.074 47.2405 119.185 45.4857C119.473 45.0533 119.719 44.6549 119.956 44.3327C120.21 44.0275 120.422 43.7732 120.609 43.5528C120.956 43.1374 121.16 42.9339 121.194 42.9593Z" fill="black"/>
<path d="M80.1624 123.03C80.2895 122.894 81.1797 124.904 82.4683 128.328L82.7565 129.091L81.9257 128.956C79.4163 128.532 76.3305 127.642 73.1175 126.26C72.1595 125.853 71.0829 125.277 70.4979 124.217C70.2097 123.7 70.0571 123.064 70.1843 122.454C70.3029 121.843 70.6759 121.309 71.1507 120.987C71.6254 120.648 72.1765 120.538 72.6766 120.529L73.0497 120.538L73.3549 120.563C73.5583 120.58 73.7618 120.597 73.9568 120.614C74.7876 120.673 75.5675 120.902 76.2033 121.131C77.4919 121.606 78.4753 122.064 79.1535 122.394C79.8741 122.742 80.2302 122.979 80.1624 123.03C80.0945 123.081 79.6707 123.013 78.9925 122.827C78.1956 122.589 77.1698 122.292 75.949 121.936C75.3047 121.767 74.6434 121.614 73.8974 121.606C73.7024 121.597 73.499 121.597 73.2955 121.589L72.9818 121.58L72.7275 121.589C72.3969 121.614 72.0578 121.699 71.8119 121.894C71.2948 122.267 71.1592 122.988 71.5491 123.623C71.9221 124.293 72.7021 124.751 73.6092 125.132C76.7289 126.48 79.7469 127.447 82.0952 128.006L81.5527 128.634C80.5778 125.395 80.0267 123.166 80.1624 123.03Z" fill="black"/>
<path d="M138.632 123.03C138.759 123.166 138.217 125.395 137.242 128.642L136.699 128.015C139.048 127.455 142.066 126.497 145.177 125.149C145.414 125.048 145.635 124.946 145.83 124.844C146.042 124.751 146.22 124.624 146.406 124.505C146.762 124.259 147.067 123.971 147.245 123.64C147.644 123.005 147.517 122.284 147 121.902C146.482 121.504 145.753 121.555 144.982 121.657C144.227 121.758 143.524 121.919 142.871 122.064C140.285 122.699 138.691 123.2 138.632 123.03C138.573 122.886 140.056 122.097 142.642 121.241C143.295 121.038 144.007 120.826 144.812 120.665C145.228 120.597 145.609 120.504 146.135 120.521C146.635 120.538 147.178 120.656 147.652 120.995C148.127 121.326 148.5 121.86 148.602 122.47C148.72 123.081 148.568 123.717 148.271 124.234C147.686 125.294 146.601 125.853 145.652 126.26C142.447 127.642 139.361 128.532 136.86 128.956L136.03 129.091L136.318 128.328C137.615 124.904 138.497 122.894 138.632 123.03Z" fill="black"/>
<path d="M129.027 152.812H90.7084C84.9776 152.812 80.3403 148.166 80.3403 142.444V117.477H139.404V142.444C139.395 148.166 134.749 152.812 129.027 152.812Z" fill="#8EC1C2"/>
<path d="M139.666 116.969H79.874V118.206H139.666V116.969Z" fill="#D7F5F6"/>
<path d="M52.8221 103.226H28.3727V150.514H52.8221V103.226Z" fill="#ABE2D9"/>
<path opacity="0.6" d="M51.1689 118.181H30.0089V149.319H51.1689V118.181Z" fill="#C4F6EC"/>
<path opacity="0.6" d="M31.2805 134.026L49.6938 109.966" stroke="#C4F6EC" stroke-width="1.09421" stroke-miterlimit="10" stroke-linecap="round"/>
<path opacity="0.6" d="M31.3484 129.007L47.4643 107.381" stroke="#C4F6EC" stroke-width="1.09421" stroke-miterlimit="10" stroke-linecap="round"/>
<path d="M26.779 114.586C26.779 114.586 23.5744 108.16 22.3367 102.743C21.6161 99.5811 18.3268 85.5337 17.1569 87.2462C15.9955 88.9587 18.4201 97.0039 19.5645 100.666C20.4886 103.616 23.5999 112.433 23.5999 112.433C23.5999 112.433 14.5289 94.6132 11.7736 94.2487C9.01843 93.8757 13.6811 100.683 14.6136 102.073C17.7334 106.702 19.8104 109.703 22.5571 113.23C22.5571 113.23 3.3215 94.52 1.31231 97.2921C-0.696872 100.064 8.62846 103.956 12.9775 107.169C16.3091 109.635 23.5151 115.612 23.5151 115.612C23.5151 115.612 22.4893 113.883 18.7592 111.441C13.1555 107.77 3.38932 103.32 2.81284 105.21C2.0329 107.77 7.49246 108.644 12.1636 110.441C22.5656 114.442 23.7694 118.079 23.7694 118.079L26.779 114.586Z" fill="#185442"/>
<path d="M30.6787 114.832C30.6787 114.832 28.0252 111.077 23.6339 114.179C19.2425 117.282 22.0316 122.835 23.3795 124.361C24.7275 125.887 36.9945 138.569 38.6392 141.664C40.2838 144.767 45.7858 153.024 47.5745 152.371C49.3633 151.727 47.9984 149.573 47.2693 144.19C46.5403 138.807 44.0394 132.889 40.784 128.905C37.5456 124.921 30.6787 114.832 30.6787 114.832Z" fill="#F97F23"/>
<path d="M32.4335 117.952C31.8401 118.045 31.2297 118.41 30.721 118.723C30.2039 119.045 29.7122 119.402 29.2205 119.741C28.288 120.385 27.2876 121.021 26.1347 121.156C25.8125 121.199 25.5328 121.402 25.5328 121.758C25.5328 122.055 25.8125 122.403 26.1347 122.36C27.4402 122.199 28.5593 121.64 29.6359 120.894C30.1361 120.546 30.6193 120.19 31.1195 119.859C31.3823 119.69 31.6536 119.529 31.9333 119.368C32.2301 119.198 32.5522 119.071 32.8404 118.893C33.3576 118.562 33.0015 117.867 32.4335 117.952Z" fill="#D55D1E"/>
<path d="M36.4772 123.327C36.1974 123.293 35.9007 123.454 35.6549 123.59C35.426 123.717 35.1971 123.844 34.9682 123.98C34.5443 124.234 34.1204 124.48 33.6965 124.742C32.8234 125.285 31.9502 125.828 31.077 126.37C30.4157 126.786 31.0261 127.837 31.6874 127.421C32.569 126.87 33.4507 126.311 34.3324 125.76C34.7478 125.497 35.1632 125.226 35.5786 124.954C36.0109 124.675 36.6637 124.344 36.8417 123.827C36.9435 123.556 36.7061 123.352 36.4772 123.327Z" fill="#D55D1E"/>
<path d="M40.9449 129.77C40.1057 130.253 39.3172 130.829 38.5203 131.372C38.1134 131.643 37.715 131.923 37.3081 132.194C36.9011 132.474 36.4349 132.737 36.0873 133.093C35.6125 133.576 36.2144 134.288 36.7824 134C37.1978 133.796 37.5624 133.474 37.9439 133.212C38.3593 132.923 38.7662 132.635 39.1816 132.347C39.9954 131.787 40.8347 131.245 41.5723 130.583C42.0216 130.185 41.4536 129.473 40.9449 129.77Z" fill="#D55D1E"/>
<path d="M45.1838 137.806C44.7938 137.891 44.4377 138.171 44.1071 138.383C43.7934 138.578 43.4967 138.773 43.1915 138.968C42.8948 139.163 42.5981 139.349 42.3014 139.544C41.9453 139.773 41.5638 139.985 41.2417 140.265C41.0213 140.451 41.0297 140.824 41.1993 141.036C41.3858 141.274 41.691 141.316 41.9538 141.189C42.2929 141.019 42.6151 140.765 42.9287 140.553C43.2339 140.35 43.5306 140.146 43.8358 139.951C44.1325 139.756 44.4293 139.561 44.7175 139.358C45.0735 139.103 45.472 138.875 45.7348 138.519C45.845 138.366 45.8026 138.12 45.7009 137.984C45.5653 137.823 45.3787 137.764 45.1838 137.806Z" fill="#D55D1E"/>
<path d="M55.2297 152.625C55.2297 152.625 71.5321 136.323 60.6638 134.958C49.7956 133.602 44.3614 143.563 44.3614 143.563C44.3614 143.563 56.1368 127.71 45.7178 125.895C35.2989 124.081 37.1131 154.431 37.1131 154.431L55.2297 152.625Z" fill="#A0B481"/>
<path d="M37.3675 151.269C37.3675 151.269 42.3523 121.826 30.1191 122.733C17.8945 123.64 21.5144 136.772 21.5144 136.772C21.5144 136.772 17.4367 119.105 9.73904 123.64C2.04139 128.167 13.359 142.206 13.359 142.206C13.359 142.206 -2.03632 134.958 0.227198 141.299C2.49071 147.64 15.6225 154.431 15.6225 154.431L37.3675 151.269Z" fill="#0B683E"/>
<path d="M16.3516 158.754H51.3979C56.4421 158.754 60.5198 154.668 60.5198 149.633H7.22974C7.22974 154.668 11.3159 158.754 16.3516 158.754Z" fill="#E6CCC5"/>
<path d="M24.8037 151.472C24.8037 147.954 27.6607 140.977 31.1788 140.977C34.697 140.977 37.554 147.946 37.554 151.472C37.554 154.991 34.697 157.847 31.1788 157.847C27.6607 157.847 24.8037 154.991 24.8037 151.472Z" fill="#F0E5E0"/>
<path d="M39.9362 151.472C39.9362 147.954 42.7931 140.977 46.3113 140.977C49.8295 140.977 52.6864 147.946 52.6864 151.472C52.6864 154.991 49.8295 157.847 46.3113 157.847C42.7931 157.847 39.9362 154.991 39.9362 151.472Z" fill="#F0E5E0"/>
<path d="M55.0771 151.472C55.0771 147.954 57.9341 140.977 61.4523 140.977C64.9705 140.977 67.8274 147.946 67.8274 151.472C67.8274 154.991 64.9705 157.847 61.4523 157.847C57.9341 157.847 55.0771 154.991 55.0771 151.472Z" fill="#F0E5E0"/>
<path d="M68.3106 149.412H24.3713C23.2692 149.412 22.3706 150.311 22.3706 151.413C22.3706 152.1 22.3621 152.795 22.3621 153.481C22.3621 153.812 22.3621 154.143 22.3706 154.473C22.3791 155.185 23.2099 154.94 23.6761 154.94C24.2441 154.94 24.7358 155.33 24.863 155.881C25.2615 157.568 26.7705 158.763 28.4999 158.763H33.9086C35.6465 158.763 37.147 157.568 37.5539 155.881C37.6811 155.33 38.1728 154.94 38.7408 154.94H38.8171C39.3851 154.94 39.8768 155.33 40.004 155.881C40.4024 157.568 41.9114 158.763 43.6493 158.763H49.058C50.7959 158.763 52.2964 157.568 52.6949 155.881C52.8221 155.33 53.3138 154.94 53.8818 154.94H53.958C54.526 154.94 55.0177 155.33 55.1449 155.881C55.5434 157.568 57.0524 158.763 58.7818 158.763H64.1905C65.9284 158.763 67.4289 157.568 67.8274 155.881C67.9545 155.33 68.4462 154.94 69.0142 154.94C69.3279 154.94 69.7518 154.948 70.0654 154.94C70.2096 154.94 70.3113 154.948 70.3113 154.778C70.3028 154.422 70.3113 153.651 70.3113 153.269C70.3113 152.651 70.3113 152.032 70.3113 151.413C70.3113 150.311 69.4127 149.412 68.3106 149.412Z" fill="#494C8E"/>
<path d="M24.507 153.804C39.1308 153.448 53.7546 153.753 68.3785 153.397C68.8108 153.388 68.8108 152.71 68.3785 152.727C53.7546 153.083 39.1308 152.778 24.507 153.134C24.0747 153.142 24.0747 153.812 24.507 153.804Z" fill="white"/>
</svg>
