<svg width="23" height="22" viewBox="0 0 23 22" fill="none" xmlns="http://www.w3.org/2000/svg">
<path d="M8.87357 19.0423V16.2394C8.87357 15.5239 9.45784 14.9438 10.1786 14.9438H12.8132C13.1594 14.9438 13.4913 15.0803 13.736 15.3233C13.9808 15.5662 14.1183 15.8958 14.1183 16.2394V19.0423C14.1161 19.3397 14.2336 19.6258 14.4447 19.8369C14.6558 20.048 14.9431 20.1667 15.2427 20.1667H17.0402C17.8797 20.1689 18.6855 19.8393 19.2799 19.2508C19.8743 18.6622 20.2084 17.8631 20.2084 17.0297V9.04466C20.2083 8.37146 19.9078 7.7329 19.3876 7.30099L13.2729 2.45292C12.2092 1.60289 10.6852 1.63033 9.6533 2.5181L3.67811 7.30099C3.13337 7.72016 2.80778 8.36062 2.79169 9.04466V17.0216C2.79169 18.7586 4.21012 20.1667 5.95985 20.1667H7.71629C8.33864 20.1667 8.84443 19.6682 8.84894 19.0504L8.87357 19.0423Z" fill="#D1D5DB"/>
</svg>
